<svg width="39" height="39" viewBox="0 0 39 39" fill="none" xmlns="http://www.w3.org/2000/svg">
<g id="hexagone-2.svg">
<path id="Vector" d="M7.58521 12.6365L13.1002 15.806" stroke="white" stroke-width="0.950943" stroke-linecap="round" stroke-linejoin="round"/>
<path id="Vector_2" d="M31.6121 12.6365L26.0972 15.806" stroke="white" stroke-width="0.950943" stroke-linecap="round" stroke-linejoin="round"/>
<path id="Vector_3" d="M6.00084 13.5871C7.0511 13.5871 7.90255 12.7357 7.90255 11.6854C7.90255 10.6351 7.0511 9.78369 6.00084 9.78369C4.95055 9.78369 4.09912 10.6351 4.09912 11.6854C4.09912 12.7357 4.95055 13.5871 6.00084 13.5871Z" stroke="white" stroke-width="0.950943" stroke-linecap="round" stroke-linejoin="round"/>
<path id="Vector_4" d="M33.1974 13.5871C34.2476 13.5871 35.0991 12.7357 35.0991 11.6854C35.0991 10.6351 34.2476 9.78369 33.1974 9.78369C32.1471 9.78369 31.2957 10.6351 31.2957 11.6854C31.2957 12.7357 32.1471 13.5871 33.1974 13.5871Z" stroke="white" stroke-width="0.950943" stroke-linecap="round" stroke-linejoin="round"/>
<path id="Vector_5" d="M19.5992 5.75778C20.6495 5.75778 21.5009 4.90634 21.5009 3.85606C21.5009 2.80577 20.6495 1.95435 19.5992 1.95435C18.549 1.95435 17.6975 2.80577 17.6975 3.85606C17.6975 4.90634 18.549 5.75778 19.5992 5.75778Z" stroke="white" stroke-width="0.950943" stroke-linecap="round" stroke-linejoin="round"/>
<path id="Vector_6" d="M6.00122 13.5874V25.7595" stroke="white" stroke-width="0.950943" stroke-linecap="round" stroke-linejoin="round"/>
<path id="Vector_7" d="M17.9503 4.77539L7.61768 10.7658" stroke="white" stroke-width="0.950943" stroke-linecap="round" stroke-linejoin="round"/>
<path id="Vector_8" d="M31.5804 10.7658L21.2478 4.77539" stroke="white" stroke-width="0.950943" stroke-linecap="round" stroke-linejoin="round"/>
<path id="Vector_9" d="M7.58521 26.7103L13.1002 23.5408" stroke="white" stroke-width="0.950943" stroke-linecap="round" stroke-linejoin="round"/>
<path id="Vector_10" d="M31.6121 26.7103L26.0972 23.5408" stroke="white" stroke-width="0.950943" stroke-linecap="round" stroke-linejoin="round"/>
<path id="Vector_11" d="M6.00084 29.5629C7.0511 29.5629 7.90255 28.7115 7.90255 27.6612C7.90255 26.611 7.0511 25.7595 6.00084 25.7595C4.95055 25.7595 4.09912 26.611 4.09912 27.6612C4.09912 28.7115 4.95055 29.5629 6.00084 29.5629Z" stroke="white" stroke-width="0.950943" stroke-linecap="round" stroke-linejoin="round"/>
<path id="Vector_12" d="M33.1974 29.5629C34.2476 29.5629 35.0991 28.7115 35.0991 27.6612C35.0991 26.611 34.2476 25.7595 33.1974 25.7595C32.1471 25.7595 31.2957 26.611 31.2957 27.6612C31.2957 28.7115 32.1471 29.5629 33.1974 29.5629Z" stroke="white" stroke-width="0.950943" stroke-linecap="round" stroke-linejoin="round"/>
<path id="Vector_13" d="M19.5992 37.3925C20.6495 37.3925 21.5009 36.5411 21.5009 35.4908C21.5009 34.4406 20.6495 33.5891 19.5992 33.5891C18.549 33.5891 17.6975 34.4406 17.6975 35.4908C17.6975 36.5411 18.549 37.3925 19.5992 37.3925Z" stroke="white" stroke-width="0.950943" stroke-linecap="round" stroke-linejoin="round"/>
<path id="Vector_14" d="M17.9503 34.5712L7.61768 28.5808" stroke="white" stroke-width="0.950943" stroke-linecap="round" stroke-linejoin="round"/>
<path id="Vector_15" d="M31.5804 28.5808L21.2478 34.5712" stroke="white" stroke-width="0.950943" stroke-linecap="round" stroke-linejoin="round"/>
<path id="Vector_16" d="M33.1975 25.7595V13.5874" stroke="white" stroke-width="0.950943" stroke-linecap="round" stroke-linejoin="round"/>
<path id="Vector_17" d="M19.5989 24.1738C22.0846 24.1738 24.0996 22.1587 24.0996 19.673C24.0996 17.1874 22.0846 15.1724 19.5989 15.1724C17.1132 15.1724 15.0981 17.1874 15.0981 19.673C15.0981 22.1587 17.1132 24.1738 19.5989 24.1738Z" stroke="white" stroke-width="0.950943" stroke-linecap="round" stroke-linejoin="round"/>
<path id="Vector_18" d="M19.5994 12.1288V5.72632" stroke="white" stroke-width="0.950943" stroke-linecap="round" stroke-linejoin="round"/>
<path id="Vector_19" d="M19.5994 27.2178V33.6202" stroke="white" stroke-width="0.950943" stroke-linecap="round" stroke-linejoin="round"/>
</g>
</svg>
