<svg width="39" height="39" viewBox="0 0 39 39" fill="none" xmlns="http://www.w3.org/2000/svg">
<g id="hexagone-1.svg" clip-path="url(#clip0_141_337)">
<path id="Vector" d="M25.8706 17.2727C25.7122 16.7655 25.522 16.2584 25.2684 15.8146L26.3778 13.3105L25.7439 12.6765L25.1099 12.0425L22.6058 13.152C22.1303 12.8984 21.6548 12.6765 21.1476 12.5497L20.165 9.98218H18.3899L17.4072 12.5497C16.9001 12.7082 16.3929 12.8984 15.9492 13.152L13.445 12.0425L12.8111 12.6765L12.1771 13.3105L13.2865 15.8146C13.0329 16.2901 12.8111 16.7655 12.6842 17.2727L10.1167 18.2554V20.0305L12.6842 21.0131C12.8427 21.5203 13.0329 22.0274 13.2865 22.4712L12.1771 24.9754L12.8111 25.6093L13.445 26.2433L15.9492 25.1338C16.4246 25.3875 16.9001 25.6093 17.4072 25.7361L18.3899 28.3037H20.165L21.1476 25.7361C21.6548 25.5777 22.162 25.3875 22.6058 25.1338L25.1099 26.2433L25.7439 25.6093L26.3778 24.9754L25.2684 22.4712C25.522 21.9957 25.7439 21.5203 25.8706 21.0131L28.4382 20.0305V18.2554L25.8706 17.2727Z" stroke="white" stroke-width="0.950943" stroke-linecap="round" stroke-linejoin="round"/>
<path id="Vector_2" d="M19.3086 23.0411C21.4792 23.0411 23.2389 21.2814 23.2389 19.1109C23.2389 16.9403 21.4792 15.1807 19.3086 15.1807C17.138 15.1807 15.3784 16.9403 15.3784 19.1109C15.3784 21.2814 17.138 23.0411 19.3086 23.0411Z" stroke="white" stroke-width="0.950943" stroke-linecap="round" stroke-linejoin="round"/>
<path id="Vector_3" d="M3.99878 10.2674V27.9549L19.309 36.7987L34.6192 27.9549V10.2674L19.309 1.42358L3.99878 10.2674Z" stroke="white" stroke-width="0.950943" stroke-linecap="round" stroke-linejoin="round"/>
<path id="Vector_4" d="M3.99878 10.2676L13.2855 15.624" stroke="white" stroke-width="0.950943" stroke-linecap="round" stroke-linejoin="round"/>
<path id="Vector_5" d="M34.6182 10.2676L25.3315 15.624" stroke="white" stroke-width="0.950943" stroke-linecap="round" stroke-linejoin="round"/>
<path id="Vector_6" d="M19.3093 36.7982V28.2405" stroke="white" stroke-width="0.950943" stroke-linecap="round" stroke-linejoin="round"/>
</g>
<defs>
<clipPath id="clip0_141_337">
<rect width="38.0377" height="38.0377" fill="white" transform="translate(0.60376 0.250977)"/>
</clipPath>
</defs>
</svg>
