<svg width="39" height="39" viewBox="0 0 39 39" fill="none" xmlns="http://www.w3.org/2000/svg">
<g id="hexagone-3.svg">
<path id="Vector" d="M5.30493 10.0139V26.6871L19.7276 34.992L34.1502 26.6871V10.0139L19.7276 1.70898L5.30493 10.0139Z" stroke="white" stroke-width="0.950943" stroke-linecap="round" stroke-linejoin="round"/>
<path id="Vector_2" d="M19.7278 26.4017C24.1744 26.4017 27.7792 22.797 27.7792 18.3504C27.7792 13.9038 24.1744 10.2991 19.7278 10.2991C15.2812 10.2991 11.6765 13.9038 11.6765 18.3504C11.6765 22.797 15.2812 26.4017 19.7278 26.4017Z" stroke="white" stroke-width="0.950943" stroke-linecap="round" stroke-linejoin="round"/>
<path id="Vector_3" d="M19.7275 23.3896C22.5108 23.3896 24.7671 21.1333 24.7671 18.3501C24.7671 15.5668 22.5108 13.3105 19.7275 13.3105C16.9443 13.3105 14.688 15.5668 14.688 18.3501C14.688 21.1333 16.9443 23.3896 19.7275 23.3896Z" stroke="white" stroke-width="0.950943" stroke-linecap="round" stroke-linejoin="round"/>
<path id="Vector_4" d="M19.7272 20.3787C20.8475 20.3787 21.7557 19.4706 21.7557 18.3503C21.7557 17.2299 20.8475 16.3218 19.7272 16.3218C18.6069 16.3218 17.6987 17.2299 17.6987 18.3503C17.6987 19.4706 18.6069 20.3787 19.7272 20.3787Z" stroke="white" stroke-width="0.950943" stroke-linecap="round" stroke-linejoin="round"/>
<path id="Vector_5" d="M19.728 28.7476V37.1468" stroke="white" stroke-width="1.42642" stroke-linecap="round" stroke-linejoin="round"/>
<path id="Vector_6" d="M21.7557 30.7761L19.7272 28.7476L17.6987 30.7761" stroke="white" stroke-width="1.42642" stroke-linecap="round" stroke-linejoin="round"/>
<path id="Vector_7" d="M10.9149 13.215L3.625 8.99951" stroke="white" stroke-width="1.42642" stroke-linecap="round" stroke-linejoin="round"/>
<path id="Vector_8" d="M8.15796 13.9442L10.9154 13.2152L10.1865 10.4578" stroke="white" stroke-width="1.42642" stroke-linecap="round" stroke-linejoin="round"/>
<path id="Vector_9" d="M28.5715 13.215L35.8297 8.99951" stroke="white" stroke-width="1.42642" stroke-linecap="round" stroke-linejoin="round"/>
<path id="Vector_10" d="M31.329 13.9442L28.5715 13.2152L29.3005 10.4578" stroke="white" stroke-width="1.42642" stroke-linecap="round" stroke-linejoin="round"/>
<path id="Vector_11" d="M26.9543 9.28486C24.9574 7.69997 22.4532 6.74902 19.7272 6.74902C17.0011 6.74902 14.4653 7.69997 12.5 9.28486" stroke="white" stroke-width="0.475472" stroke-linecap="round" stroke-linejoin="round"/>
<path id="Vector_12" d="M24.1021 29.0645C28.3179 27.3528 31.2975 23.2003 31.2975 18.3505C31.2975 13.5007 31.2658 17.3045 31.2024 16.7973" stroke="white" stroke-width="0.475472" stroke-linecap="round" stroke-linejoin="round"/>
<path id="Vector_13" d="M8.25305 16.7974C8.18967 17.3045 8.15796 17.8117 8.15796 18.3506C8.15796 23.2004 11.1376 27.3528 15.3534 29.0645" stroke="white" stroke-width="0.475472" stroke-linecap="round" stroke-linejoin="round"/>
</g>
</svg>
